<svg xmlns="http://www.w3.org/2000/svg" viewBox="0 0 1920 1080" width="1920" height="1080">
  <!-- Background -->
  <rect width="1920" height="1080" fill="#0d1117"/>

  <!-- Subtle hydra motif -->
  <g opacity="0.04" stroke="#58a6ff" stroke-width="1.5" fill="none">
    <path d="M960,900 Q860,700 780,500 Q740,400 700,320 Q680,270 640,240"/>
    <path d="M960,900 Q920,700 900,500 Q890,400 880,320 Q875,270 860,230"/>
    <path d="M960,900 Q1000,700 1040,500 Q1060,400 1080,320 Q1090,270 1100,240"/>
    <path d="M960,900 Q1060,700 1140,500 Q1180,400 1220,320 Q1240,270 1280,240"/>
    <path d="M960,900 Q940,750 960,550 Q970,420 980,340 Q985,290 990,250"/>
    <circle cx="640" cy="240" r="8"/>
    <circle cx="860" cy="230" r="8"/>
    <circle cx="990" cy="250" r="8"/>
    <circle cx="1100" cy="240" r="8"/>
    <circle cx="1280" cy="240" r="8"/>
  </g>

  <!-- ==================== TITLE ==================== -->
  <text x="960" y="58" text-anchor="middle" font-family="Helvetica,Arial,sans-serif" font-size="32" font-weight="bold" fill="#e6edf3">Hydra: Tiered Big Integer Runtime for Modern C++</text>
  <line x1="760" y1="72" x2="1160" y2="72" stroke="#58a6ff" stroke-width="2" opacity="0.5"/>
  <text x="960" y="95" text-anchor="middle" font-family="Helvetica,Arial,sans-serif" font-size="14" fill="#8b949e">Architecture and profiler-guided performance story</text>

  <!-- ==================== PANEL 1 — ARCHITECTURE ==================== -->
  <g transform="translate(60,130)">
    <rect x="0" y="0" width="560" height="870" rx="12" fill="#0d1117" stroke="#21262d" stroke-width="1"/>

    <text x="280" y="40" text-anchor="middle" font-family="Helvetica,Arial,sans-serif" font-size="16" font-weight="bold" fill="#58a6ff">ARCHITECTURE</text>
    <line x1="40" y1="55" x2="520" y2="55" stroke="#21262d" stroke-width="1"/>

    <!-- SMALL tier -->
    <rect x="40" y="80" width="480" height="150" rx="10" fill="#1a3a5c" stroke="#30363d" stroke-width="1"/>
    <rect x="40" y="80" width="4" height="150" rx="2" fill="#58a6ff"/>
    <polygon points="82,115 74,133 84,133 76,151 78,151 90,129 80,129 88,115" fill="#58a6ff" opacity="0.8"/>
    <text x="100" y="120" font-family="Helvetica,Arial,sans-serif" font-size="18" font-weight="bold" fill="#e6edf3">Small</text>
    <rect x="155" y="107" width="80" height="18" rx="9" fill="#58a6ff" opacity="0.15"/>
    <text x="195" y="119" text-anchor="middle" font-family="Helvetica,Arial,sans-serif" font-size="11" font-weight="bold" fill="#58a6ff">FASTEST</text>
    <text x="100" y="148" font-family="Helvetica,Arial,sans-serif" font-size="12" fill="#8b949e">inline uint64_t storage</text>
    <text x="100" y="168" font-family="Helvetica,Arial,sans-serif" font-size="12" fill="#8b949e">near-native arithmetic via __builtin_add_overflow</text>
    <text x="100" y="188" font-family="Helvetica,Arial,sans-serif" font-size="12" fill="#8b949e">zero allocation, zero indirection</text>
    <text x="100" y="210" font-family="Helvetica,Arial,sans-serif" font-size="12" fill="#3fb950">+18.5% add / +13.3% mul vs raw uint64_t</text>

    <!-- Promote arrow Small->Medium -->
    <line x1="248" y1="235" x2="248" y2="273" stroke="#58a6ff" stroke-width="1.5" opacity="0.6"/>
    <polygon points="243,268 248,278 253,268" fill="#58a6ff" opacity="0.6"/>
    <text x="262" y="261" font-family="Helvetica,Arial,sans-serif" font-size="10" font-weight="bold" fill="#58a6ff">PROMOTE</text>

    <!-- Normalize arrow Medium->Small (right side, going up) -->
    <line x1="490" y1="278" x2="490" y2="240" stroke="#3fb950" stroke-width="1.5" opacity="0.5" stroke-dasharray="3,2"/>
    <polygon points="486,245 490,235 494,245" fill="#3fb950" opacity="0.5"/>
    <text x="480" y="262" text-anchor="end" font-family="Helvetica,Arial,sans-serif" font-size="10" font-weight="bold" fill="#3fb950" opacity="0.6">NORMALIZE</text>

    <!-- MEDIUM tier -->
    <rect x="40" y="280" width="480" height="150" rx="10" fill="#1a2d4a" stroke="#30363d" stroke-width="1"/>
    <rect x="40" y="280" width="4" height="150" rx="2" fill="#1f6feb"/>
    <rect x="72" y="310" width="24" height="4" rx="2" fill="#1f6feb" opacity="0.6"/>
    <rect x="70" y="318" width="28" height="4" rx="2" fill="#1f6feb" opacity="0.8"/>
    <rect x="72" y="326" width="24" height="4" rx="2" fill="#1f6feb" opacity="0.6"/>
    <text x="100" y="325" font-family="Helvetica,Arial,sans-serif" font-size="18" font-weight="bold" fill="#e6edf3">Medium</text>
    <rect x="175" y="312" width="120" height="18" rx="9" fill="#1f6feb" opacity="0.15"/>
    <text x="235" y="324" text-anchor="middle" font-family="Helvetica,Arial,sans-serif" font-size="11" font-weight="bold" fill="#58a6ff">128-512 BIT</text>
    <text x="100" y="352" font-family="Helvetica,Arial,sans-serif" font-size="12" fill="#8b949e">inline fixed limbs (up to 4 x uint64_t)</text>
    <text x="100" y="372" font-family="Helvetica,Arial,sans-serif" font-size="12" fill="#8b949e">stack-allocated arithmetic buffers</text>
    <text x="100" y="392" font-family="Helvetica,Arial,sans-serif" font-size="12" fill="#8b949e">no heap, full inlining opportunity</text>
    <text x="100" y="412" font-family="Helvetica,Arial,sans-serif" font-size="12" fill="#8b949e">sweet spot for cryptographic-width integers</text>

    <!-- Promote arrow Medium->Large -->
    <line x1="248" y1="435" x2="248" y2="473" stroke="#1f6feb" stroke-width="1.5" opacity="0.6"/>
    <polygon points="243,468 248,478 253,468" fill="#1f6feb" opacity="0.6"/>
    <text x="262" y="461" font-family="Helvetica,Arial,sans-serif" font-size="10" font-weight="bold" fill="#58a6ff">PROMOTE</text>

    <!-- Normalize arrow Large->Medium (right side, going up) -->
    <line x1="490" y1="478" x2="490" y2="440" stroke="#3fb950" stroke-width="1.5" opacity="0.5" stroke-dasharray="3,2"/>
    <polygon points="486,445 490,435 494,445" fill="#3fb950" opacity="0.5"/>
    <text x="480" y="462" text-anchor="end" font-family="Helvetica,Arial,sans-serif" font-size="10" font-weight="bold" fill="#3fb950" opacity="0.6">NORMALIZE</text>

    <!-- LARGE tier -->
    <rect x="40" y="480" width="480" height="170" rx="10" fill="#15202e" stroke="#30363d" stroke-width="1"/>
    <rect x="40" y="480" width="4" height="170" rx="2" fill="#6e7681"/>
    <ellipse cx="84" cy="514" rx="14" ry="4" fill="none" stroke="#6e7681" stroke-width="1.5"/>
    <path d="M70,514 v16 a14,4 0 0,0 28,0 v-16" fill="none" stroke="#6e7681" stroke-width="1.5"/>
    <ellipse cx="84" cy="522" rx="14" ry="4" fill="none" stroke="#6e7681" stroke-width="0.8" opacity="0.5"/>
    <text x="100" y="525" font-family="Helvetica,Arial,sans-serif" font-size="18" font-weight="bold" fill="#e6edf3">Large</text>
    <rect x="160" y="512" width="110" height="18" rx="9" fill="#6e7681" opacity="0.15"/>
    <text x="215" y="524" text-anchor="middle" font-family="Helvetica,Arial,sans-serif" font-size="11" font-weight="bold" fill="#58a6ff">ARBITRARY</text>
    <text x="100" y="555" font-family="Helvetica,Arial,sans-serif" font-size="12" fill="#8b949e">heap-allocated LargeRep with capacity tracking</text>
    <text x="100" y="575" font-family="Helvetica,Arial,sans-serif" font-size="12" fill="#8b949e">arbitrary precision via limb arrays</text>
    <text x="100" y="595" font-family="Helvetica,Arial,sans-serif" font-size="12" fill="#8b949e">in-place operator+= with capacity reuse</text>
    <text x="100" y="615" font-family="Helvetica,Arial,sans-serif" font-size="12" fill="#3fb950">zero steady-state allocation in chained ops</text>
    <text x="100" y="635" font-family="Helvetica,Arial,sans-serif" font-size="12" fill="#3fb950">45.3% faster than Boost at 512-bit add</text>

    <!-- Philosophy -->
    <text x="280" y="700" text-anchor="middle" font-family="Helvetica,Arial,sans-serif" font-size="12" fill="#8b949e">Values auto-promote on overflow</text>
    <text x="280" y="718" text-anchor="middle" font-family="Helvetica,Arial,sans-serif" font-size="12" fill="#8b949e">and normalize back down when upper limbs are zero</text>

    <!-- Tier size bar -->
    <rect x="40" y="750" width="480" height="36" rx="8" fill="#161b22" stroke="#21262d" stroke-width="0.5"/>
    <rect x="40" y="750" width="80" height="36" rx="8" fill="#58a6ff" opacity="0.08"/>
    <text x="80" y="773" text-anchor="middle" font-family="Helvetica,Arial,sans-serif" font-size="10" font-weight="bold" fill="#58a6ff">64-bit</text>
    <rect x="120" y="750" width="160" height="36" fill="#1f6feb" opacity="0.06"/>
    <text x="200" y="773" text-anchor="middle" font-family="Helvetica,Arial,sans-serif" font-size="10" font-weight="bold" fill="#1f6feb">128-256 bit</text>
    <rect x="280" y="750" width="240" height="36" fill="#6e7681" opacity="0.05"/>
    <text x="400" y="773" text-anchor="middle" font-family="Helvetica,Arial,sans-serif" font-size="10" font-weight="bold" fill="#6e7681">arbitrary precision</text>
  </g>

  <!-- ==================== PANEL 2 — PROFILER STORY ==================== -->
  <g transform="translate(660,130)">
    <rect x="0" y="0" width="580" height="870" rx="12" fill="#0d1117" stroke="#21262d" stroke-width="1"/>

    <text x="290" y="40" text-anchor="middle" font-family="Helvetica,Arial,sans-serif" font-size="16" font-weight="bold" fill="#58a6ff">PROFILER OPTIMIZATION STORY</text>
    <line x1="40" y1="55" x2="540" y2="55" stroke="#21262d" stroke-width="1"/>

    <!-- BEFORE sub-panel -->
    <rect x="30" y="75" width="245" height="380" rx="8" fill="#1a0a0a" stroke="#da3633" stroke-width="0.5" opacity="0.8"/>
    <polygon points="55,92 45,110 65,110" fill="none" stroke="#f85149" stroke-width="1.5"/>
    <line x1="55" y1="98" x2="55" y2="104" stroke="#f85149" stroke-width="1.5"/>
    <circle cx="55" cy="107" r="1" fill="#f85149"/>
    <text x="72" y="105" font-family="Helvetica,Arial,sans-serif" font-size="14" font-weight="bold" fill="#f85149">BEFORE</text>
    <text x="72" y="121" font-family="Helvetica,Arial,sans-serif" font-size="10" fill="#8b949e">add_general heap path</text>

    <!-- Before call stack bars -->
    <rect x="45" y="145" width="215" height="34" rx="4" fill="#da3633" opacity="0.9"/>
    <text x="55" y="167" font-family="Helvetica,Arial,sans-serif" font-size="11" font-weight="bold" fill="#fff">std::vector allocation</text>
    <text x="250" y="167" text-anchor="end" font-family="Helvetica,Arial,sans-serif" font-size="10" fill="#fff" opacity="0.7">38%</text>

    <rect x="55" y="187" width="205" height="34" rx="4" fill="#da3633" opacity="0.75"/>
    <text x="65" y="209" font-family="Helvetica,Arial,sans-serif" font-size="11" font-weight="bold" fill="#fff">memmove / memcpy</text>
    <text x="250" y="209" text-anchor="end" font-family="Helvetica,Arial,sans-serif" font-size="10" fill="#fff" opacity="0.7">24%</text>

    <rect x="65" y="229" width="195" height="34" rx="4" fill="#da3633" opacity="0.6"/>
    <text x="75" y="251" font-family="Helvetica,Arial,sans-serif" font-size="11" font-weight="bold" fill="#fff">LargeRep::create</text>
    <text x="250" y="251" text-anchor="end" font-family="Helvetica,Arial,sans-serif" font-size="10" fill="#fff" opacity="0.7">19%</text>

    <rect x="75" y="271" width="185" height="34" rx="4" fill="#da3633" opacity="0.45"/>
    <text x="85" y="293" font-family="Helvetica,Arial,sans-serif" font-size="11" font-weight="bold" fill="#fff">double buffering</text>
    <text x="250" y="293" text-anchor="end" font-family="Helvetica,Arial,sans-serif" font-size="10" fill="#fff" opacity="0.7">12%</text>

    <rect x="85" y="320" width="60" height="24" rx="4" fill="#238636" opacity="0.4"/>
    <text x="95" y="336" font-family="Helvetica,Arial,sans-serif" font-size="9" font-weight="bold" fill="#3fb950">add_limbs</text>
    <text x="165" y="336" font-family="Helvetica,Arial,sans-serif" font-size="9" fill="#8b949e">7% actual work</text>

    <!-- Flame icon (SVG path) -->
    <path d="M140,365 C140,365 132,375 132,381 C132,385 136,389 140,389 C144,389 148,385 148,381 C148,375 140,365 140,365 Z" fill="#f85149" opacity="0.3"/>
    <text x="152" y="415" text-anchor="middle" font-family="Helvetica,Arial,sans-serif" font-size="10" fill="#da3633" opacity="0.7">93% overhead</text>
    <text x="152" y="430" text-anchor="middle" font-family="Helvetica,Arial,sans-serif" font-size="10" fill="#da3633" opacity="0.7">2 allocs + full memcpy per op</text>

    <!-- Arrow between Before/After -->
    <line x1="280" y1="265" x2="298" y2="265" stroke="#58a6ff" stroke-width="2" opacity="0.6"/>
    <polygon points="294,260 304,265 294,270" fill="#58a6ff" opacity="0.6"/>

    <!-- AFTER sub-panel -->
    <rect x="305" y="75" width="245" height="380" rx="8" fill="#0a1a0a" stroke="#238636" stroke-width="0.5" opacity="0.8"/>
    <circle cx="325" cy="100" r="10" fill="none" stroke="#3fb950" stroke-width="1.5"/>
    <polyline points="320,100 324,104 331,96" fill="none" stroke="#3fb950" stroke-width="1.5"/>
    <text x="347" y="105" font-family="Helvetica,Arial,sans-serif" font-size="14" font-weight="bold" fill="#3fb950">AFTER</text>
    <text x="347" y="121" font-family="Helvetica,Arial,sans-serif" font-size="10" fill="#8b949e">direct LargeRep write</text>

    <!-- After call stack bars -->
    <rect x="320" y="145" width="215" height="34" rx="4" fill="#238636" opacity="0.9"/>
    <text x="330" y="167" font-family="Helvetica,Arial,sans-serif" font-size="11" font-weight="bold" fill="#fff">add_limbs</text>
    <text x="525" y="167" text-anchor="end" font-family="Helvetica,Arial,sans-serif" font-size="10" fill="#fff" opacity="0.7">57%</text>

    <rect x="330" y="187" width="175" height="34" rx="4" fill="#238636" opacity="0.7"/>
    <text x="340" y="209" font-family="Helvetica,Arial,sans-serif" font-size="11" font-weight="bold" fill="#fff">normalize</text>
    <text x="495" y="209" text-anchor="end" font-family="Helvetica,Arial,sans-serif" font-size="10" fill="#fff" opacity="0.7">18%</text>

    <rect x="340" y="229" width="145" height="34" rx="4" fill="#238636" opacity="0.55"/>
    <text x="350" y="251" font-family="Helvetica,Arial,sans-serif" font-size="11" font-weight="bold" fill="#fff">LargeRep::create</text>
    <text x="475" y="251" text-anchor="end" font-family="Helvetica,Arial,sans-serif" font-size="10" fill="#fff" opacity="0.7">14%</text>

    <rect x="350" y="271" width="100" height="34" rx="4" fill="#21262d" opacity="0.8"/>
    <text x="360" y="293" font-family="Helvetica,Arial,sans-serif" font-size="11" fill="#8b949e">other</text>
    <text x="440" y="293" text-anchor="end" font-family="Helvetica,Arial,sans-serif" font-size="10" fill="#8b949e" opacity="0.7">11%</text>

    <!-- Result callout -->
    <rect x="320" y="330" width="215" height="44" rx="6" fill="#238636" opacity="0.12" stroke="#3fb950" stroke-width="0.5"/>
    <text x="427" y="348" text-anchor="middle" font-family="Helvetica,Arial,sans-serif" font-size="11" font-weight="bold" fill="#3fb950">1 allocation, 0 copies</text>
    <text x="427" y="364" text-anchor="middle" font-family="Helvetica,Arial,sans-serif" font-size="10" fill="#3fb950" opacity="0.7">arithmetic is the bottleneck</text>

    <text x="427" y="415" text-anchor="middle" font-family="Helvetica,Arial,sans-serif" font-size="10" fill="#3fb950" opacity="0.7">operator+= reuses capacity</text>
    <text x="427" y="430" text-anchor="middle" font-family="Helvetica,Arial,sans-serif" font-size="10" fill="#3fb950" opacity="0.7">0 allocs in chained steady state</text>

    <!-- Phase 2 sub-panel -->
    <rect x="30" y="475" width="520" height="130" rx="8" fill="#161b22" stroke="#21262d" stroke-width="0.5"/>
    <text x="290" y="499" text-anchor="middle" font-family="Helvetica,Arial,sans-serif" font-size="12" font-weight="bold" fill="#58a6ff">PHASE 2: IN-PLACE CAPACITY REUSE</text>
    <line x1="50" y1="510" x2="530" y2="510" stroke="#21262d" stroke-width="0.5"/>

    <text x="170" y="533" text-anchor="middle" font-family="Helvetica,Arial,sans-serif" font-size="11" fill="#f85149">acc = acc + step</text>
    <text x="410" y="533" text-anchor="middle" font-family="Helvetica,Arial,sans-serif" font-size="11" fill="#3fb950">acc += step (in-place)</text>

    <text x="170" y="553" text-anchor="middle" font-family="Helvetica,Arial,sans-serif" font-size="10" fill="#8b949e">alloc + dealloc per op</text>
    <text x="410" y="553" text-anchor="middle" font-family="Helvetica,Arial,sans-serif" font-size="10" fill="#8b949e">reuses existing buffer</text>

    <line x1="260" y1="540" x2="300" y2="540" stroke="#58a6ff" stroke-width="1.5" opacity="0.5"/>
    <polygon points="296,536 306,540 296,544" fill="#58a6ff" opacity="0.5"/>

    <text x="290" y="585" text-anchor="middle" font-family="Helvetica,Arial,sans-serif" font-size="10" fill="#6e7681">add_limbs writes directly into LargeRep buffer; ascending order prevents aliasing issues</text>

    <!-- Caption -->
    <rect x="30" y="630" width="520" height="64" rx="8" fill="#161b22" stroke="#21262d" stroke-width="0.5"/>
    <text x="290" y="654" text-anchor="middle" font-family="Helvetica,Arial,sans-serif" font-size="12" fill="#c9d1d9">Profiler-guided optimization removed double buffering</text>
    <text x="290" y="674" text-anchor="middle" font-family="Helvetica,Arial,sans-serif" font-size="12" fill="#c9d1d9">and collapsed a major large-add allocation cliff</text>

    <text x="290" y="730" text-anchor="middle" font-family="Helvetica,Arial,sans-serif" font-size="10" fill="#484f58">Instruments Time Profiler + ASan/UBSan verification</text>
  </g>

  <!-- ==================== PANEL 3 — PERFORMANCE SNAPSHOT ==================== -->
  <g transform="translate(1280,130)">
    <rect x="0" y="0" width="580" height="870" rx="12" fill="#0d1117" stroke="#21262d" stroke-width="1"/>

    <text x="290" y="40" text-anchor="middle" font-family="Helvetica,Arial,sans-serif" font-size="16" font-weight="bold" fill="#58a6ff">PERFORMANCE SNAPSHOT</text>
    <line x1="40" y1="55" x2="540" y2="55" stroke="#21262d" stroke-width="1"/>

    <!-- Section: Small Path -->
    <text x="30" y="85" font-family="Helvetica,Arial,sans-serif" font-size="13" font-weight="bold" fill="#58a6ff">SMALL PATH vs NATIVE uint64_t</text>
    <rect x="30" y="95" width="520" height="2" rx="1" fill="#58a6ff" opacity="0.2"/>

    <!-- small add -->
    <rect x="30" y="115" width="520" height="64" rx="8" fill="#161b22" stroke="#21262d" stroke-width="0.5"/>
    <text x="50" y="140" font-family="Helvetica,Arial,sans-serif" font-size="13" font-weight="bold" fill="#c9d1d9">small add</text>
    <text x="50" y="159" font-family="Helvetica,Arial,sans-serif" font-size="10" fill="#484f58">__builtin_add_overflow fast path</text>
    <rect x="230" y="129" width="240" height="12" rx="3" fill="#21262d"/>
    <rect x="230" y="129" width="222" height="12" rx="3" fill="#58a6ff" opacity="0.7"/>
    <rect x="452" y="125" width="52" height="20" rx="3" fill="#58a6ff" opacity="0.15" stroke="#58a6ff" stroke-width="0.5"/>
    <text x="478" y="139" text-anchor="middle" font-family="Helvetica,Arial,sans-serif" font-size="10" font-weight="bold" fill="#58a6ff">+18.5%</text>
    <line x1="470" y1="149" x2="470" y2="165" stroke="#8b949e" stroke-width="0.5" stroke-dasharray="2,2"/>
    <text x="470" y="173" text-anchor="middle" font-family="Helvetica,Arial,sans-serif" font-size="9" fill="#484f58">native</text>

    <!-- small mul -->
    <rect x="30" y="195" width="520" height="64" rx="8" fill="#161b22" stroke="#21262d" stroke-width="0.5"/>
    <text x="50" y="220" font-family="Helvetica,Arial,sans-serif" font-size="13" font-weight="bold" fill="#c9d1d9">small mul</text>
    <text x="50" y="239" font-family="Helvetica,Arial,sans-serif" font-size="10" fill="#484f58">__uint128_t mul/umulh pair</text>
    <rect x="230" y="209" width="240" height="12" rx="3" fill="#21262d"/>
    <rect x="230" y="209" width="228" height="12" rx="3" fill="#58a6ff" opacity="0.7"/>
    <rect x="458" y="205" width="52" height="20" rx="3" fill="#58a6ff" opacity="0.15" stroke="#58a6ff" stroke-width="0.5"/>
    <text x="484" y="219" text-anchor="middle" font-family="Helvetica,Arial,sans-serif" font-size="10" font-weight="bold" fill="#58a6ff">+13.3%</text>
    <line x1="470" y1="229" x2="470" y2="245" stroke="#8b949e" stroke-width="0.5" stroke-dasharray="2,2"/>
    <text x="470" y="253" text-anchor="middle" font-family="Helvetica,Arial,sans-serif" font-size="9" fill="#484f58">native</text>

    <!-- Near-native callout -->
    <rect x="30" y="275" width="520" height="32" rx="6" fill="#58a6ff" fill-opacity="0.06" stroke="#58a6ff" stroke-width="0.5" stroke-opacity="0.3"/>
    <text x="290" y="296" text-anchor="middle" font-family="Helvetica,Arial,sans-serif" font-size="11" font-weight="bold" fill="#58a6ff">Near-native small path with full tiered promotion</text>

    <!-- Section: Large Path -->
    <text x="30" y="340" font-family="Helvetica,Arial,sans-serif" font-size="13" font-weight="bold" fill="#3fb950">LARGE PATH vs BOOST.MULTIPRECISION</text>
    <rect x="30" y="350" width="520" height="2" rx="1" fill="#3fb950" opacity="0.2"/>

    <!-- large add 256 -->
    <rect x="30" y="370" width="520" height="64" rx="8" fill="#161b22" stroke="#21262d" stroke-width="0.5"/>
    <text x="50" y="395" font-family="Helvetica,Arial,sans-serif" font-size="13" font-weight="bold" fill="#c9d1d9">large add 256-bit</text>
    <text x="50" y="414" font-family="Helvetica,Arial,sans-serif" font-size="10" fill="#484f58">4-limb direct LargeRep write</text>
    <rect x="230" y="384" width="240" height="12" rx="3" fill="#21262d"/>
    <rect x="230" y="384" width="245" height="12" rx="3" fill="#3fb950" opacity="0.5"/>
    <rect x="475" y="380" width="44" height="20" rx="3" fill="#3fb950" opacity="0.12" stroke="#3fb950" stroke-width="0.5"/>
    <text x="497" y="394" text-anchor="middle" font-family="Helvetica,Arial,sans-serif" font-size="10" font-weight="bold" fill="#3fb950">+2.1%</text>
    <text x="497" y="428" text-anchor="middle" font-family="Helvetica,Arial,sans-serif" font-size="9" fill="#484f58">vs Boost</text>

    <!-- large add 512 — HERO -->
    <rect x="30" y="450" width="520" height="74" rx="8" fill="#0d1f0d" stroke="#3fb950" stroke-width="1"/>
    <text x="50" y="478" font-family="Helvetica,Arial,sans-serif" font-size="14" font-weight="bold" fill="#e6edf3">large add 512-bit</text>
    <text x="50" y="498" font-family="Helvetica,Arial,sans-serif" font-size="10" fill="#3fb950">8-limb scratch-buffer elimination</text>
    <rect x="230" y="464" width="240" height="16" rx="4" fill="#21262d"/>
    <rect x="230" y="464" width="240" height="16" rx="4" fill="#3fb950" opacity="0.8"/>
    <rect x="230" y="464" width="132" height="16" rx="4" fill="none" stroke="#fff" stroke-width="0.5" stroke-dasharray="2,2" opacity="0.3"/>
    <text x="296" y="505" text-anchor="middle" font-family="Helvetica,Arial,sans-serif" font-size="8" fill="#484f58">Boost</text>
    <text x="500" y="485" text-anchor="middle" font-family="Helvetica,Arial,sans-serif" font-size="22" font-weight="bold" fill="#3fb950">45.3%</text>
    <text x="500" y="502" text-anchor="middle" font-family="Helvetica,Arial,sans-serif" font-size="10" fill="#3fb950">faster</text>

    <!-- chain large add 64 -->
    <rect x="30" y="540" width="520" height="64" rx="8" fill="#161b22" stroke="#21262d" stroke-width="0.5"/>
    <text x="50" y="565" font-family="Helvetica,Arial,sans-serif" font-size="13" font-weight="bold" fill="#c9d1d9">chain large add 64-limb</text>
    <text x="50" y="584" font-family="Helvetica,Arial,sans-serif" font-size="10" fill="#484f58">in-place += capacity reuse, 10x accumulation</text>
    <rect x="230" y="554" width="240" height="12" rx="3" fill="#21262d"/>
    <rect x="230" y="554" width="253" height="12" rx="3" fill="#3fb950" opacity="0.6"/>
    <rect x="483" y="550" width="44" height="20" rx="3" fill="#3fb950" opacity="0.12" stroke="#3fb950" stroke-width="0.5"/>
    <text x="505" y="564" text-anchor="middle" font-family="Helvetica,Arial,sans-serif" font-size="10" font-weight="bold" fill="#3fb950">+5.6%</text>
    <text x="500" y="598" text-anchor="middle" font-family="Helvetica,Arial,sans-serif" font-size="9" fill="#484f58">vs Boost</text>

    <!-- Competitive callout -->
    <rect x="30" y="620" width="520" height="32" rx="6" fill="#3fb950" fill-opacity="0.06" stroke="#3fb950" stroke-width="0.5" stroke-opacity="0.3"/>
    <text x="290" y="641" text-anchor="middle" font-family="Helvetica,Arial,sans-serif" font-size="11" font-weight="bold" fill="#3fb950">Competitive large arithmetic with zero-alloc chained ops</text>

    <!-- Summary cards -->
    <text x="30" y="690" font-family="Helvetica,Arial,sans-serif" font-size="13" font-weight="bold" fill="#8b949e">KEY TAKEAWAYS</text>
    <rect x="30" y="700" width="520" height="2" rx="1" fill="#8b949e" opacity="0.2"/>

    <!-- Card 1 -->
    <rect x="30" y="715" width="165" height="80" rx="8" fill="#161b22" stroke="#21262d" stroke-width="0.5"/>
    <text x="112" y="740" text-anchor="middle" font-family="Helvetica,Arial,sans-serif" font-size="24" font-weight="bold" fill="#58a6ff">~1.15x</text>
    <text x="112" y="759" text-anchor="middle" font-family="Helvetica,Arial,sans-serif" font-size="10" fill="#8b949e">small path</text>
    <text x="112" y="773" text-anchor="middle" font-family="Helvetica,Arial,sans-serif" font-size="10" fill="#8b949e">vs native</text>
    <text x="112" y="787" text-anchor="middle" font-family="Helvetica,Arial,sans-serif" font-size="9" fill="#484f58">near-native</text>

    <!-- Card 2 -->
    <rect x="208" y="715" width="165" height="80" rx="8" fill="#161b22" stroke="#21262d" stroke-width="0.5"/>
    <text x="290" y="740" text-anchor="middle" font-family="Helvetica,Arial,sans-serif" font-size="24" font-weight="bold" fill="#3fb950">1.45x</text>
    <text x="290" y="759" text-anchor="middle" font-family="Helvetica,Arial,sans-serif" font-size="10" fill="#8b949e">512-bit add</text>
    <text x="290" y="773" text-anchor="middle" font-family="Helvetica,Arial,sans-serif" font-size="10" fill="#8b949e">vs Boost</text>
    <text x="290" y="787" text-anchor="middle" font-family="Helvetica,Arial,sans-serif" font-size="9" fill="#484f58">single-alloc path</text>

    <!-- Card 3 -->
    <rect x="386" y="715" width="165" height="80" rx="8" fill="#161b22" stroke="#21262d" stroke-width="0.5"/>
    <text x="468" y="740" text-anchor="middle" font-family="Helvetica,Arial,sans-serif" font-size="24" font-weight="bold" fill="#79c0ff">0</text>
    <text x="468" y="759" text-anchor="middle" font-family="Helvetica,Arial,sans-serif" font-size="10" fill="#8b949e">steady-state</text>
    <text x="468" y="773" text-anchor="middle" font-family="Helvetica,Arial,sans-serif" font-size="10" fill="#8b949e">allocations</text>
    <text x="468" y="787" text-anchor="middle" font-family="Helvetica,Arial,sans-serif" font-size="9" fill="#484f58">chained +=</text>
  </g>

  <!-- ==================== FOOTER ==================== -->
  <text x="960" y="1045" text-anchor="middle" font-family="Helvetica,Arial,sans-serif" font-size="15" font-style="italic" fill="#8b949e">"Pay for complexity only when the value actually needs it."</text>
  <line x1="700" y1="1060" x2="1220" y2="1060" stroke="#21262d" stroke-width="1"/>
  <text x="960" y="1075" text-anchor="middle" font-family="Helvetica,Arial,sans-serif" font-size="10" fill="#484f58">hydra.hpp | header-only | modern C++ | MIT</text>
</svg>