<svg xmlns="http://www.w3.org/2000/svg" viewBox="0 0 1920 1080" width="1920" height="1080">
  <defs>
    <!-- Gradients -->
    <linearGradient id="bgGrad" x1="0" y1="0" x2="0" y2="1">
      <stop offset="0%" stop-color="#0d1117"/>
      <stop offset="100%" stop-color="#161b22"/>
    </linearGradient>
    <linearGradient id="neonBlue" x1="0" y1="0" x2="1" y2="1">
      <stop offset="0%" stop-color="#58a6ff"/>
      <stop offset="100%" stop-color="#79c0ff"/>
    </linearGradient>
    <linearGradient id="smallGrad" x1="0" y1="0" x2="1" y2="0">
      <stop offset="0%" stop-color="#1a3a5c"/>
      <stop offset="100%" stop-color="#1f4068"/>
    </linearGradient>
    <linearGradient id="medGrad" x1="0" y1="0" x2="1" y2="0">
      <stop offset="0%" stop-color="#1a2d4a"/>
      <stop offset="100%" stop-color="#1c3355"/>
    </linearGradient>
    <linearGradient id="largeGrad" x1="0" y1="0" x2="1" y2="0">
      <stop offset="0%" stop-color="#15202e"/>
      <stop offset="100%" stop-color="#192638"/>
    </linearGradient>
    <linearGradient id="redBar" x1="0" y1="0" x2="1" y2="0">
      <stop offset="0%" stop-color="#da3633"/>
      <stop offset="100%" stop-color="#f85149"/>
    </linearGradient>
    <linearGradient id="greenBar" x1="0" y1="0" x2="1" y2="0">
      <stop offset="0%" stop-color="#238636"/>
      <stop offset="100%" stop-color="#3fb950"/>
    </linearGradient>
    <linearGradient id="blueAccent" x1="0" y1="0" x2="0" y2="1">
      <stop offset="0%" stop-color="#58a6ff" stop-opacity="0.15"/>
      <stop offset="100%" stop-color="#58a6ff" stop-opacity="0"/>
    </linearGradient>

    <!-- Glow filter -->
    <filter id="glow" x="-20%" y="-20%" width="140%" height="140%">
      <feGaussianBlur stdDeviation="3" result="blur"/>
      <feMerge>
        <feMergeNode in="blur"/>
        <feMergeNode in="SourceGraphic"/>
      </feMerge>
    </filter>
    <filter id="softGlow" x="-10%" y="-10%" width="120%" height="120%">
      <feGaussianBlur stdDeviation="1.5" result="blur"/>
      <feMerge>
        <feMergeNode in="blur"/>
        <feMergeNode in="SourceGraphic"/>
      </feMerge>
    </filter>

    <!-- Panel card style -->
    <filter id="cardShadow" x="-5%" y="-5%" width="110%" height="110%">
      <feGaussianBlur in="SourceAlpha" stdDeviation="6" result="shadow"/>
      <feOffset dx="0" dy="2" result="offsetShadow"/>
      <feFlood flood-color="#000" flood-opacity="0.4" result="color"/>
      <feComposite in="color" in2="offsetShadow" operator="in" result="coloredShadow"/>
      <feMerge>
        <feMergeNode in="coloredShadow"/>
        <feMergeNode in="SourceGraphic"/>
      </feMerge>
    </filter>
  </defs>

  <style>
    text { font-family: -apple-system, BlinkMacSystemFont, 'Segoe UI', Helvetica, Arial, sans-serif; }
    .title { font-size: 32px; font-weight: 700; fill: #e6edf3; }
    .subtitle { font-size: 14px; font-weight: 400; fill: #8b949e; letter-spacing: 0.5px; }
    .panel-title { font-size: 16px; font-weight: 600; fill: #58a6ff; text-transform: uppercase; letter-spacing: 1.5px; }
    .tier-name { font-size: 18px; font-weight: 700; fill: #e6edf3; }
    .tier-detail { font-size: 12px; font-weight: 400; fill: #8b949e; }
    .tier-tag { font-size: 11px; font-weight: 600; fill: #58a6ff; }
    .bar-label { font-size: 12px; font-weight: 500; fill: #c9d1d9; }
    .bar-label-dim { font-size: 12px; font-weight: 500; fill: #8b949e; }
    .caption { font-size: 12px; font-weight: 400; fill: #8b949e; }
    .metric-value { font-size: 22px; font-weight: 700; }
    .metric-label { font-size: 11px; font-weight: 500; fill: #8b949e; }
    .metric-sub { font-size: 10px; font-weight: 400; fill: #484f58; }
    .footer { font-size: 15px; font-weight: 500; fill: #8b949e; font-style: italic; }
    .section-label { font-size: 13px; font-weight: 600; letter-spacing: 0.5px; }
    .arrow-text { font-size: 10px; font-weight: 600; fill: #58a6ff; letter-spacing: 0.5px; }
  </style>

  <!-- Background -->
  <rect width="1920" height="1080" fill="url(#bgGrad)"/>

  <!-- Subtle hydra motif - abstract multi-headed serpent lines -->
  <g opacity="0.04" stroke="#58a6ff" stroke-width="1.5" fill="none">
    <path d="M960,900 Q860,700 780,500 Q740,400 700,320 Q680,270 640,240"/>
    <path d="M960,900 Q920,700 900,500 Q890,400 880,320 Q875,270 860,230"/>
    <path d="M960,900 Q1000,700 1040,500 Q1060,400 1080,320 Q1090,270 1100,240"/>
    <path d="M960,900 Q1060,700 1140,500 Q1180,400 1220,320 Q1240,270 1280,240"/>
    <path d="M960,900 Q940,750 960,550 Q970,420 980,340 Q985,290 990,250"/>
    <!-- Heads -->
    <circle cx="640" cy="240" r="8"/>
    <circle cx="860" cy="230" r="8"/>
    <circle cx="990" cy="250" r="8"/>
    <circle cx="1100" cy="240" r="8"/>
    <circle cx="1280" cy="240" r="8"/>
  </g>

  <!-- Grid lines -->
  <g opacity="0.03" stroke="#58a6ff" stroke-width="0.5">
    <line x1="640" y1="80" x2="640" y2="1000"/>
    <line x1="1280" y1="80" x2="1280" y2="1000"/>
    <line x1="60" y1="130" x2="1860" y2="130"/>
  </g>

  <!-- ===================== TITLE ===================== -->
  <text x="960" y="58" text-anchor="middle" class="title">Hydra: Tiered Big Integer Runtime for Modern C++</text>
  <line x1="760" y1="72" x2="1160" y2="72" stroke="url(#neonBlue)" stroke-width="2" opacity="0.5"/>
  <text x="960" y="95" text-anchor="middle" class="subtitle">Architecture &amp; profiler-guided performance story</text>

  <!-- ===================== PANEL 1 — ARCHITECTURE ===================== -->
  <g transform="translate(60, 130)">
    <!-- Panel background -->
    <rect x="0" y="0" width="560" height="870" rx="12" fill="#0d1117" stroke="#21262d" stroke-width="1" filter="url(#cardShadow)"/>
    <rect x="0" y="0" width="560" height="870" rx="12" fill="url(#blueAccent)"/>

    <text x="280" y="40" text-anchor="middle" class="panel-title">Architecture</text>
    <line x1="40" y1="55" x2="520" y2="55" stroke="#21262d" stroke-width="1"/>

    <!-- SMALL tier -->
    <rect x="40" y="80" width="480" height="150" rx="10" fill="url(#smallGrad)" stroke="#30363d" stroke-width="1"/>
    <rect x="40" y="80" width="4" height="150" rx="2" fill="#58a6ff"/>
    <!-- Lightning bolt icon -->
    <g transform="translate(70, 115)">
      <polygon points="12,0 4,18 14,18 6,36 8,36 20,14 10,14 18,0" fill="#58a6ff" opacity="0.8"/>
    </g>
    <text x="100" y="120" class="tier-name">Small</text>
    <rect x="155" y="107" width="80" height="18" rx="9" fill="#58a6ff" opacity="0.15"/>
    <text x="195" y="119" text-anchor="middle" class="tier-tag">FASTEST</text>
    <text x="100" y="148" class="tier-detail">inline uint64_t storage</text>
    <text x="100" y="168" class="tier-detail">near-native arithmetic via __builtin_add_overflow</text>
    <text x="100" y="188" class="tier-detail">zero allocation, zero indirection</text>
    <text x="100" y="210" class="tier-detail" fill="#3fb950">+18.5% add / +13.3% mul vs raw uint64_t</text>

    <!-- Promotion arrow down -->
    <g transform="translate(248, 235)">
      <line x1="0" y1="0" x2="0" y2="38" stroke="#58a6ff" stroke-width="1.5" opacity="0.6"/>
      <polygon points="-5,33 0,43 5,33" fill="#58a6ff" opacity="0.6"/>
      <text x="14" y="26" class="arrow-text">PROMOTE</text>
    </g>

    <!-- MEDIUM tier -->
    <rect x="40" y="280" width="480" height="150" rx="10" fill="url(#medGrad)" stroke="#30363d" stroke-width="1"/>
    <rect x="40" y="280" width="4" height="150" rx="2" fill="#1f6feb"/>
    <!-- Layers icon -->
    <g transform="translate(70, 310)">
      <rect x="2" y="0" width="24" height="4" rx="2" fill="#1f6feb" opacity="0.6"/>
      <rect x="0" y="8" width="28" height="4" rx="2" fill="#1f6feb" opacity="0.8"/>
      <rect x="2" y="16" width="24" height="4" rx="2" fill="#1f6feb" opacity="0.6"/>
    </g>
    <text x="100" y="325" class="tier-name">Medium</text>
    <rect x="175" y="312" width="120" height="18" rx="9" fill="#1f6feb" opacity="0.15"/>
    <text x="235" y="324" text-anchor="middle" class="tier-tag">128-512 BIT</text>
    <text x="100" y="352" class="tier-detail">inline fixed limbs (up to 4 x uint64_t)</text>
    <text x="100" y="372" class="tier-detail">stack-allocated arithmetic buffers</text>
    <text x="100" y="392" class="tier-detail">no heap, full inlining opportunity</text>
    <text x="100" y="412" class="tier-detail" fill="#8b949e">sweet spot for cryptographic-width integers</text>

    <!-- Promotion arrow down -->
    <g transform="translate(248, 435)">
      <line x1="0" y1="0" x2="0" y2="38" stroke="#1f6feb" stroke-width="1.5" opacity="0.6"/>
      <polygon points="-5,33 0,43 5,33" fill="#1f6feb" opacity="0.6"/>
      <text x="14" y="26" class="arrow-text">PROMOTE</text>
    </g>

    <!-- LARGE tier -->
    <rect x="40" y="480" width="480" height="170" rx="10" fill="url(#largeGrad)" stroke="#30363d" stroke-width="1"/>
    <rect x="40" y="480" width="4" height="170" rx="2" fill="#6e7681"/>
    <!-- Database icon -->
    <g transform="translate(70, 510)">
      <ellipse cx="14" cy="4" rx="14" ry="4" fill="none" stroke="#6e7681" stroke-width="1.5"/>
      <path d="M0,4 v16 a14,4 0 0,0 28,0 v-16" fill="none" stroke="#6e7681" stroke-width="1.5"/>
      <ellipse cx="14" cy="12" rx="14" ry="4" fill="none" stroke="#6e7681" stroke-width="0.8" opacity="0.5"/>
    </g>
    <text x="100" y="525" class="tier-name">Large</text>
    <rect x="160" y="512" width="110" height="18" rx="9" fill="#6e7681" opacity="0.15"/>
    <text x="215" y="524" text-anchor="middle" class="tier-tag">ARBITRARY</text>
    <text x="100" y="555" class="tier-detail">heap-allocated LargeRep with capacity tracking</text>
    <text x="100" y="575" class="tier-detail">arbitrary precision via limb arrays</text>
    <text x="100" y="595" class="tier-detail">in-place operator+= with capacity reuse</text>
    <text x="100" y="615" class="tier-detail" fill="#3fb950">zero steady-state allocation in chained ops</text>
    <text x="100" y="635" class="tier-detail" fill="#3fb950">45.3% faster than Boost at 512-bit add</text>

    <!-- Demotion arrows (right side, going up) -->
    <g transform="translate(490, 235)">
      <line x1="0" y1="43" x2="0" y2="5" stroke="#3fb950" stroke-width="1.5" opacity="0.5" stroke-dasharray="3,2"/>
      <polygon points="-4,10 0,0 4,10" fill="#3fb950" opacity="0.5"/>
    </g>
    <text x="480" y="262" text-anchor="end" font-size="10" font-weight="600" fill="#3fb950" opacity="0.6" letter-spacing="0.5">NORMALIZE</text>

    <g transform="translate(490, 435)">
      <line x1="0" y1="43" x2="0" y2="5" stroke="#3fb950" stroke-width="1.5" opacity="0.5" stroke-dasharray="3,2"/>
      <polygon points="-4,10 0,0 4,10" fill="#3fb950" opacity="0.5"/>
    </g>
    <text x="480" y="462" text-anchor="end" font-size="10" font-weight="600" fill="#3fb950" opacity="0.6" letter-spacing="0.5">NORMALIZE</text>

    <!-- Philosophy caption -->
    <text x="280" y="700" text-anchor="middle" class="caption">Values auto-promote on overflow</text>
    <text x="280" y="718" text-anchor="middle" class="caption">and normalize back down when upper limbs are zero</text>

    <!-- Tier size indicators -->
    <g transform="translate(40, 750)">
      <rect x="0" y="0" width="480" height="36" rx="8" fill="#161b22" stroke="#21262d" stroke-width="0.5"/>
      <rect x="0" y="0" width="80" height="36" rx="8" fill="#58a6ff" opacity="0.08"/>
      <text x="40" y="23" text-anchor="middle" font-size="10" font-weight="600" fill="#58a6ff">64-bit</text>
      <rect x="80" y="0" width="160" height="36" rx="0" fill="#1f6feb" opacity="0.06"/>
      <text x="160" y="23" text-anchor="middle" font-size="10" font-weight="600" fill="#1f6feb">128-256 bit</text>
      <rect x="240" y="0" width="240" height="36" rx="0" fill="#6e7681" opacity="0.05"/>
      <text x="360" y="23" text-anchor="middle" font-size="10" font-weight="600" fill="#6e7681">arbitrary precision</text>
    </g>
  </g>

  <!-- ===================== PANEL 2 — PROFILER STORY ===================== -->
  <g transform="translate(660, 130)">
    <rect x="0" y="0" width="580" height="870" rx="12" fill="#0d1117" stroke="#21262d" stroke-width="1" filter="url(#cardShadow)"/>
    <rect x="0" y="0" width="580" height="870" rx="12" fill="url(#blueAccent)"/>

    <text x="290" y="40" text-anchor="middle" class="panel-title">Profiler Optimization Story</text>
    <line x1="40" y1="55" x2="540" y2="55" stroke="#21262d" stroke-width="1"/>

    <!-- BEFORE panel -->
    <g transform="translate(30, 75)">
      <rect x="0" y="0" width="245" height="380" rx="8" fill="#1a0a0a" stroke="#da3633" stroke-width="0.5" opacity="0.8"/>

      <!-- Warning icon -->
      <g transform="translate(15, 15)">
        <polygon points="10,2 0,20 20,20" fill="none" stroke="#f85149" stroke-width="1.5"/>
        <line x1="10" y1="8" x2="10" y2="14" stroke="#f85149" stroke-width="1.5"/>
        <circle cx="10" cy="17" r="1" fill="#f85149"/>
      </g>
      <text x="42" y="30" font-size="14" font-weight="700" fill="#f85149">BEFORE</text>
      <text x="42" y="46" font-size="10" fill="#8b949e">add_general heap path</text>

      <!-- Call stack visualization -->
      <g transform="translate(15, 70)">
        <!-- Stack frames as bars -->
        <rect x="0" y="0" width="215" height="34" rx="4" fill="url(#redBar)" opacity="0.9"/>
        <text x="10" y="22" font-size="11" font-weight="600" fill="#fff">std::vector allocation</text>
        <text x="205" y="22" text-anchor="end" font-size="10" fill="#fff" opacity="0.7">38%</text>

        <rect x="10" y="42" width="205" height="34" rx="4" fill="url(#redBar)" opacity="0.75"/>
        <text x="20" y="64" font-size="11" font-weight="600" fill="#fff">memmove / memcpy</text>
        <text x="205" y="64" text-anchor="end" font-size="10" fill="#fff" opacity="0.7">24%</text>

        <rect x="20" y="84" width="195" height="34" rx="4" fill="url(#redBar)" opacity="0.6"/>
        <text x="30" y="106" font-size="11" font-weight="600" fill="#fff">LargeRep::create</text>
        <text x="205" y="106" text-anchor="end" font-size="10" fill="#fff" opacity="0.7">19%</text>

        <rect x="30" y="126" width="185" height="34" rx="4" fill="url(#redBar)" opacity="0.45"/>
        <text x="40" y="148" font-size="11" font-weight="600" fill="#fff">double buffering</text>
        <text x="205" y="148" text-anchor="end" font-size="10" fill="#fff" opacity="0.7">12%</text>

        <!-- Actual work - tiny -->
        <rect x="40" y="175" width="60" height="24" rx="4" fill="#238636" opacity="0.4"/>
        <text x="50" y="191" font-size="9" font-weight="500" fill="#3fb950">add_limbs</text>
        <text x="120" y="191" font-size="9" fill="#8b949e">7% actual work</text>
      </g>

      <!-- Flame icon -->
      <g transform="translate(100, 280)" opacity="0.35">
        <path d="M12,2 C12,2 4,12 4,18 C4,22 8,26 12,26 C16,26 20,22 20,18 C20,12 12,2 12,2 Z M12,23 C9.5,23 7,21 7,18 C7,15 12,7 12,7 C12,7 17,15 17,18 C17,21 14.5,23 12,23 Z" fill="#f85149" transform="scale(1.8)"/>
      </g>
      <text x="122" y="340" text-anchor="middle" font-size="10" fill="#da3633" opacity="0.7">93% overhead</text>
      <text x="122" y="355" text-anchor="middle" font-size="10" fill="#da3633" opacity="0.7">2 allocs + full memcpy per op</text>
    </g>

    <!-- Arrow between panels -->
    <g transform="translate(280, 240)">
      <line x1="0" y1="0" x2="18" y2="0" stroke="#58a6ff" stroke-width="2" opacity="0.6"/>
      <polygon points="14,-5 24,0 14,5" fill="#58a6ff" opacity="0.6"/>
    </g>

    <!-- AFTER panel -->
    <g transform="translate(305, 75)">
      <rect x="0" y="0" width="245" height="380" rx="8" fill="#0a1a0a" stroke="#238636" stroke-width="0.5" opacity="0.8"/>

      <!-- Check icon -->
      <g transform="translate(15, 15)">
        <circle cx="10" cy="10" r="10" fill="none" stroke="#3fb950" stroke-width="1.5"/>
        <polyline points="5,10 9,14 16,6" fill="none" stroke="#3fb950" stroke-width="1.5"/>
      </g>
      <text x="42" y="30" font-size="14" font-weight="700" fill="#3fb950">AFTER</text>
      <text x="42" y="46" font-size="10" fill="#8b949e">direct LargeRep write</text>

      <!-- Call stack visualization -->
      <g transform="translate(15, 70)">
        <rect x="0" y="0" width="215" height="34" rx="4" fill="url(#greenBar)" opacity="0.9"/>
        <text x="10" y="22" font-size="11" font-weight="600" fill="#fff">add_limbs</text>
        <text x="205" y="22" text-anchor="end" font-size="10" fill="#fff" opacity="0.7">57%</text>

        <rect x="10" y="42" width="175" height="34" rx="4" fill="url(#greenBar)" opacity="0.7"/>
        <text x="20" y="64" font-size="11" font-weight="600" fill="#fff">normalize</text>
        <text x="175" y="64" text-anchor="end" font-size="10" fill="#fff" opacity="0.7">18%</text>

        <rect x="20" y="84" width="145" height="34" rx="4" fill="url(#greenBar)" opacity="0.55"/>
        <text x="30" y="106" font-size="11" font-weight="600" fill="#fff">LargeRep::create</text>
        <text x="155" y="106" text-anchor="end" font-size="10" fill="#fff" opacity="0.7">14%</text>

        <rect x="30" y="126" width="100" height="34" rx="4" fill="#21262d" opacity="0.8"/>
        <text x="40" y="148" font-size="11" font-weight="500" fill="#8b949e">other</text>
        <text x="120" y="148" text-anchor="end" font-size="10" fill="#8b949e" opacity="0.7">11%</text>

        <!-- Result callout -->
        <g transform="translate(0, 185)">
          <rect x="0" y="0" width="215" height="44" rx="6" fill="#238636" opacity="0.12" stroke="#3fb950" stroke-width="0.5"/>
          <text x="108" y="18" text-anchor="middle" font-size="11" font-weight="600" fill="#3fb950">1 allocation, 0 copies</text>
          <text x="108" y="34" text-anchor="middle" font-size="10" fill="#3fb950" opacity="0.7">arithmetic is the bottleneck</text>
        </g>
      </g>

      <text x="122" y="340" text-anchor="middle" font-size="10" fill="#3fb950" opacity="0.7">operator+= reuses capacity</text>
      <text x="122" y="355" text-anchor="middle" font-size="10" fill="#3fb950" opacity="0.7">0 allocs in chained steady state</text>
    </g>

    <!-- Phase 2: operator+= story -->
    <g transform="translate(30, 475)">
      <rect x="0" y="0" width="520" height="130" rx="8" fill="#161b22" stroke="#21262d" stroke-width="0.5"/>
      <text x="260" y="24" text-anchor="middle" font-size="12" font-weight="600" fill="#58a6ff" letter-spacing="1">PHASE 2: IN-PLACE CAPACITY REUSE</text>
      <line x1="20" y1="35" x2="500" y2="35" stroke="#21262d" stroke-width="0.5"/>

      <!-- Before/after mini comparison -->
      <text x="140" y="58" text-anchor="middle" font-size="11" font-weight="500" fill="#f85149">acc = acc + step</text>
      <text x="380" y="58" text-anchor="middle" font-size="11" font-weight="500" fill="#3fb950">acc += step (in-place)</text>

      <text x="140" y="78" text-anchor="middle" font-size="10" fill="#8b949e">alloc + dealloc per op</text>
      <text x="380" y="78" text-anchor="middle" font-size="10" fill="#8b949e">reuses existing buffer</text>

      <!-- Arrow -->
      <line x1="230" y1="65" x2="270" y2="65" stroke="#58a6ff" stroke-width="1.5" opacity="0.5"/>
      <polygon points="266,61 276,65 266,69" fill="#58a6ff" opacity="0.5"/>

      <text x="260" y="110" text-anchor="middle" font-size="10" fill="#6e7681">add_limbs writes directly into LargeRep buffer, ascending order prevents aliasing issues</text>
    </g>

    <!-- Caption -->
    <g transform="translate(30, 630)">
      <rect x="0" y="0" width="520" height="64" rx="8" fill="#161b22" stroke="#21262d" stroke-width="0.5"/>
      <text x="260" y="24" text-anchor="middle" font-size="12" font-weight="500" fill="#c9d1d9">Profiler-guided optimization removed double buffering</text>
      <text x="260" y="44" text-anchor="middle" font-size="12" font-weight="500" fill="#c9d1d9">and collapsed a major large-add allocation cliff</text>
    </g>

    <!-- Tool chain note -->
    <text x="290" y="730" text-anchor="middle" font-size="10" fill="#484f58">Instruments Time Profiler + ASan/UBSan verification</text>
  </g>

  <!-- ===================== PANEL 3 — PERFORMANCE SNAPSHOT ===================== -->
  <g transform="translate(1280, 130)">
    <rect x="0" y="0" width="580" height="870" rx="12" fill="#0d1117" stroke="#21262d" stroke-width="1" filter="url(#cardShadow)"/>
    <rect x="0" y="0" width="580" height="870" rx="12" fill="url(#blueAccent)"/>

    <text x="290" y="40" text-anchor="middle" class="panel-title">Performance Snapshot</text>
    <line x1="40" y1="55" x2="540" y2="55" stroke="#21262d" stroke-width="1"/>

    <!-- Section: Small Path -->
    <g transform="translate(30, 75)">
      <text x="0" y="0" class="section-label" fill="#58a6ff">SMALL PATH vs NATIVE uint64_t</text>
      <rect x="0" y="10" width="520" height="2" rx="1" fill="#58a6ff" opacity="0.2"/>

      <!-- small add metric -->
      <g transform="translate(0, 30)">
        <rect x="0" y="0" width="520" height="64" rx="8" fill="#161b22" stroke="#21262d" stroke-width="0.5"/>
        <text x="20" y="25" font-size="13" font-weight="600" fill="#c9d1d9">small add</text>
        <text x="20" y="44" font-size="10" fill="#484f58">__builtin_add_overflow fast path</text>
        <!-- Bar -->
        <rect x="200" y="14" width="240" height="12" rx="3" fill="#21262d"/>
        <rect x="200" y="14" width="222" height="12" rx="3" fill="#58a6ff" opacity="0.7"/>
        <rect x="422" y="10" width="44" height="20" rx="3" fill="#58a6ff" opacity="0.15" stroke="#58a6ff" stroke-width="0.5"/>
        <text x="444" y="24" text-anchor="middle" font-size="10" font-weight="700" fill="#58a6ff">+18.5%</text>
        <!-- Native reference line -->
        <line x1="440" y1="34" x2="440" y2="50" stroke="#8b949e" stroke-width="0.5" stroke-dasharray="2,2"/>
        <text x="440" y="58" text-anchor="middle" font-size="9" fill="#484f58">native</text>
      </g>

      <!-- small mul metric -->
      <g transform="translate(0, 110)">
        <rect x="0" y="0" width="520" height="64" rx="8" fill="#161b22" stroke="#21262d" stroke-width="0.5"/>
        <text x="20" y="25" font-size="13" font-weight="600" fill="#c9d1d9">small mul</text>
        <text x="20" y="44" font-size="10" fill="#484f58">__uint128_t mul/umulh pair</text>
        <rect x="200" y="14" width="240" height="12" rx="3" fill="#21262d"/>
        <rect x="200" y="14" width="228" height="12" rx="3" fill="#58a6ff" opacity="0.7"/>
        <rect x="428" y="10" width="44" height="20" rx="3" fill="#58a6ff" opacity="0.15" stroke="#58a6ff" stroke-width="0.5"/>
        <text x="450" y="24" text-anchor="middle" font-size="10" font-weight="700" fill="#58a6ff">+13.3%</text>
        <line x1="440" y1="34" x2="440" y2="50" stroke="#8b949e" stroke-width="0.5" stroke-dasharray="2,2"/>
        <text x="440" y="58" text-anchor="middle" font-size="9" fill="#484f58">native</text>
      </g>

      <!-- Near-native callout -->
      <g transform="translate(0, 190)">
        <rect x="0" y="0" width="520" height="32" rx="6" fill="#58a6ff" fill-opacity="0.06" stroke="#58a6ff" stroke-width="0.5" stroke-opacity="0.5"/>
        <text x="260" y="21" text-anchor="middle" font-size="11" font-weight="600" fill="#58a6ff">Near-native small path with full tiered promotion</text>
      </g>
    </g>

    <!-- Section: Large Path -->
    <g transform="translate(30, 330)">
      <text x="0" y="0" class="section-label" fill="#3fb950">LARGE PATH vs BOOST.MULTIPRECISION</text>
      <rect x="0" y="10" width="520" height="2" rx="1" fill="#3fb950" opacity="0.2"/>

      <!-- large add 256 -->
      <g transform="translate(0, 30)">
        <rect x="0" y="0" width="520" height="64" rx="8" fill="#161b22" stroke="#21262d" stroke-width="0.5"/>
        <text x="20" y="25" font-size="13" font-weight="600" fill="#c9d1d9">large add 256-bit</text>
        <text x="20" y="44" font-size="10" fill="#484f58">4-limb direct LargeRep write</text>
        <rect x="200" y="14" width="240" height="12" rx="3" fill="#21262d"/>
        <rect x="200" y="14" width="245" height="12" rx="3" fill="#3fb950" opacity="0.5"/>
        <rect x="445" y="10" width="44" height="20" rx="3" fill="#3fb950" opacity="0.12" stroke="#3fb950" stroke-width="0.5"/>
        <text x="467" y="24" text-anchor="middle" font-size="10" font-weight="700" fill="#3fb950">+2.1%</text>
        <text x="470" y="58" text-anchor="middle" font-size="9" fill="#484f58">vs Boost</text>
      </g>

      <!-- large add 512 — HERO METRIC -->
      <g transform="translate(0, 110)">
        <rect x="0" y="0" width="520" height="74" rx="8" fill="#0d1f0d" stroke="#3fb950" stroke-width="1"/>
        <text x="20" y="28" font-size="14" font-weight="700" fill="#e6edf3">large add 512-bit</text>
        <text x="20" y="48" font-size="10" fill="#3fb950">8-limb scratch-buffer elimination</text>
        <!-- Emphasized bar -->
        <rect x="200" y="14" width="240" height="16" rx="4" fill="#21262d"/>
        <rect x="200" y="14" width="240" height="16" rx="4" fill="#3fb950" opacity="0.8"/>
        <rect x="200" y="14" width="132" height="16" rx="4" fill="none" stroke="#fff" stroke-width="0.5" stroke-dasharray="2,2" opacity="0.3"/>
        <text x="266" y="55" text-anchor="middle" font-size="8" fill="#484f58">Boost</text>
        <!-- Big number -->
        <text x="470" y="35" text-anchor="middle" class="metric-value" fill="#3fb950">45.3%</text>
        <text x="470" y="52" text-anchor="middle" font-size="10" font-weight="500" fill="#3fb950">faster</text>
      </g>

      <!-- chain large add 64 -->
      <g transform="translate(0, 200)">
        <rect x="0" y="0" width="520" height="64" rx="8" fill="#161b22" stroke="#21262d" stroke-width="0.5"/>
        <text x="20" y="25" font-size="13" font-weight="600" fill="#c9d1d9">chain large add 64-limb</text>
        <text x="20" y="44" font-size="10" fill="#484f58">in-place += capacity reuse, 10x accumulation</text>
        <rect x="200" y="14" width="240" height="12" rx="3" fill="#21262d"/>
        <rect x="200" y="14" width="253" height="12" rx="3" fill="#3fb950" opacity="0.6"/>
        <rect x="453" y="10" width="44" height="20" rx="3" fill="#3fb950" opacity="0.12" stroke="#3fb950" stroke-width="0.5"/>
        <text x="475" y="24" text-anchor="middle" font-size="10" font-weight="700" fill="#3fb950">+5.6%</text>
        <text x="470" y="58" text-anchor="middle" font-size="9" fill="#484f58">vs Boost</text>
      </g>

      <!-- Competitive callout -->
      <g transform="translate(0, 280)">
        <rect x="0" y="0" width="520" height="32" rx="6" fill="#3fb950" fill-opacity="0.06" stroke="#3fb950" stroke-width="0.5" stroke-opacity="0.5"/>
        <text x="260" y="21" text-anchor="middle" font-size="11" font-weight="600" fill="#3fb950">Competitive large arithmetic with zero-alloc chained ops</text>
      </g>
    </g>

    <!-- Summary cards -->
    <g transform="translate(30, 670)">
      <text x="0" y="0" class="section-label" fill="#8b949e">KEY TAKEAWAYS</text>
      <rect x="0" y="10" width="520" height="2" rx="1" fill="#8b949e" opacity="0.2"/>

      <g transform="translate(0, 25)">
        <!-- Card 1 -->
        <rect x="0" y="0" width="165" height="80" rx="8" fill="#161b22" stroke="#21262d" stroke-width="0.5"/>
        <text x="82" y="25" text-anchor="middle" font-size="24" font-weight="700" fill="#58a6ff">~1.15x</text>
        <text x="82" y="44" text-anchor="middle" font-size="10" fill="#8b949e">small path</text>
        <text x="82" y="58" text-anchor="middle" font-size="10" fill="#8b949e">vs native</text>
        <text x="82" y="72" text-anchor="middle" font-size="9" fill="#484f58">near-native</text>

        <!-- Card 2 -->
        <rect x="178" y="0" width="165" height="80" rx="8" fill="#161b22" stroke="#21262d" stroke-width="0.5"/>
        <text x="260" y="25" text-anchor="middle" font-size="24" font-weight="700" fill="#3fb950">1.45x</text>
        <text x="260" y="44" text-anchor="middle" font-size="10" fill="#8b949e">512-bit add</text>
        <text x="260" y="58" text-anchor="middle" font-size="10" fill="#8b949e">vs Boost</text>
        <text x="260" y="72" text-anchor="middle" font-size="9" fill="#484f58">single-alloc path</text>

        <!-- Card 3 -->
        <rect x="356" y="0" width="165" height="80" rx="8" fill="#161b22" stroke="#21262d" stroke-width="0.5"/>
        <text x="438" y="25" text-anchor="middle" font-size="24" font-weight="700" fill="#79c0ff">0</text>
        <text x="438" y="44" text-anchor="middle" font-size="10" fill="#8b949e">steady-state</text>
        <text x="438" y="58" text-anchor="middle" font-size="10" fill="#8b949e">allocations</text>
        <text x="438" y="72" text-anchor="middle" font-size="9" fill="#484f58">chained +=</text>
      </g>
    </g>
  </g>

  <!-- ===================== FOOTER ===================== -->
  <text x="960" y="1045" text-anchor="middle" class="footer">"Pay for complexity only when the value actually needs it."</text>
  <line x1="700" y1="1060" x2="1220" y2="1060" stroke="#21262d" stroke-width="1"/>
  <text x="960" y="1075" text-anchor="middle" font-size="10" fill="#484f58" font-family="Inter, sans-serif">hydra.hpp  |  header-only  |  modern C++  |  MIT</text>
</svg>